M48
; DRILL file {KiCad 7.0.9} date Tue Aug 13 23:39:12 2024
; FORMAT={-:-/ absolute / inch / decimal}
; #@! TF.CreationDate,2024-08-13T23:39:12-05:00
; #@! TF.GenerationSoftware,Kicad,Pcbnew,7.0.9
; #@! TF.FileFunction,Plated,1,2,PTH
FMAT,2
INCH
; #@! TA.AperFunction,Plated,PTH,ViaDrill
T1C0.0157
; #@! TA.AperFunction,Plated,PTH,ComponentDrill
T2C0.0181
; #@! TA.AperFunction,Plated,PTH,ViaDrill
T3C0.0236
; #@! TA.AperFunction,Plated,PTH,ComponentDrill
T4C0.0315
; #@! TA.AperFunction,Plated,PTH,ComponentDrill
T5C0.0433
; #@! TA.AperFunction,Plated,PTH,ComponentDrill
T6C0.0450
; #@! TA.AperFunction,Plated,PTH,ComponentDrill
T7C0.0520
; #@! TA.AperFunction,Plated,PTH,ComponentDrill
T8C0.0630
; #@! TA.AperFunction,Plated,PTH,ComponentDrill
T9C0.1260
%
G90
G05
T1
X1.3583Y-5.25
X1.4173Y-4.3898
X1.4321Y-3.1181
X1.4567Y-5.25
X1.5157Y-4.3898
X1.5157Y-4.6654
X1.5305Y-3.1181
X1.5354Y-3.4646
X1.5551Y-5.5709
X1.9465Y-4.6185
X1.9488Y-3.4252
X1.9685Y-3.3268
X1.9706Y-5.5346
X1.9931Y-4.5719
X2.0105Y-5.4948
X2.3425Y-6.122
X2.6181Y-3.6024
X2.7165Y-3.2677
X2.7165Y-3.3661
X2.7165Y-3.4646
X2.742Y-3.5294
X2.7559Y-3.4646
X2.815Y-3.7008
X2.9134Y-3.4055
X3.0512Y-3.878
X3.0512Y-3.7732
X3.0906Y-2.9331
X3.0906Y-3.622
X3.1102Y-3.5827
X3.1693Y-3.248
X3.1693Y-3.3661
X3.1693Y-5.4724
X3.5433Y-3.9173
X3.5433Y-4.0157
X3.5453Y-3.4646
X3.5453Y-3.5236
X3.6417Y-3.7795
X3.7402Y-4.0748
X3.878Y-3.9173
T2
X2.6819Y-2.7843
X3.0268Y-2.7843
T3
X1.9291Y-7.2244
X1.9291Y-7.3622
X1.9882Y-6.7323
X1.9882Y-6.811
X2.1654Y-4.3307
X2.2047Y-4.9803
X2.5197Y-7.2244
X2.5197Y-7.3622
X3.0906Y-7.2244
X3.0906Y-7.3622
X3.6811Y-7.2244
X3.6811Y-7.3622
X4.252Y-7.2441
X4.252Y-7.3425
T4
X1.4173Y-6.9488
X1.4173Y-7.2488
X3.7992Y-4.252
X3.7992Y-4.552
X3.937Y-4.252
X3.937Y-4.552
T5
X2.689Y-3.9945
X2.689Y-4.0945
X2.689Y-4.1945
X2.689Y-4.2945
X2.689Y-4.3945
X2.689Y-4.4945
X2.689Y-4.5945
X2.689Y-4.6945
X2.689Y-4.7945
X2.689Y-4.8945
X2.689Y-4.9945
X2.689Y-5.0945
X2.689Y-5.1945
X2.689Y-5.2945
X2.689Y-5.3945
X2.689Y-5.4945
X2.689Y-5.5945
X2.689Y-5.6945
X2.689Y-5.7945
X2.689Y-5.8945
X2.689Y-5.9945
X2.689Y-6.0945
X2.689Y-6.1945
X2.689Y-6.2945
X3.289Y-3.9945
X3.289Y-4.0945
X3.289Y-4.1945
X3.289Y-4.2945
X3.289Y-4.3945
X3.289Y-4.4945
X3.289Y-4.5945
X3.289Y-4.6945
X3.289Y-4.7945
X3.289Y-4.8945
X3.289Y-4.9945
X3.289Y-5.0945
X3.289Y-5.1945
X3.289Y-5.2945
X3.289Y-5.3945
X3.289Y-5.4945
X3.289Y-5.5945
X3.289Y-5.6945
X3.289Y-5.7945
X3.289Y-5.8945
X3.289Y-5.9945
X3.289Y-6.0945
X3.289Y-6.1945
X3.289Y-6.2945
T6
X1.7099Y-7.1622
X1.7099Y-7.2622
X1.7099Y-7.3622
X1.7126Y-6.7126
X1.7126Y-6.8126
X1.7126Y-6.9126
X2.2861Y-7.1597
X2.2861Y-7.2597
X2.2861Y-7.3597
X2.8543Y-7.1642
X2.8543Y-7.2642
X2.8543Y-7.3642
X3.4252Y-7.1622
X3.4252Y-7.2622
X3.4252Y-7.3622
X3.9961Y-7.1654
X3.9961Y-7.2654
X3.9961Y-7.3654
T7
X1.4476Y-6.5728
X1.4476Y-6.6732
X1.4476Y-6.7736
T8
X1.0827Y-3.2677
X1.0827Y-3.4055
X1.0827Y-3.5433
X1.0827Y-3.6811
X1.0827Y-3.8189
X1.0827Y-3.9567
X1.0827Y-4.0945
X1.0827Y-4.3701
X1.0827Y-4.5079
X1.0827Y-4.6457
X1.0827Y-4.7835
X1.0827Y-4.9213
X1.0827Y-5.0591
X1.0827Y-5.1969
X1.0827Y-5.4724
X1.0827Y-5.6102
X1.0827Y-5.748
X1.0827Y-5.8858
X1.0827Y-6.0236
X1.0827Y-6.1614
X1.0827Y-6.2992
X1.1024Y-6.5945
X1.1024Y-6.7323
X1.1024Y-7.1457
X1.1024Y-7.2835
X1.3976Y-7.6772
X1.5354Y-7.6772
X1.6732Y-7.6772
X1.9685Y-7.6772
X2.1063Y-7.6772
X2.2441Y-7.6772
X2.5394Y-7.6772
X2.6772Y-7.6772
X2.815Y-7.6772
X3.1102Y-7.6772
X3.248Y-7.6772
X3.3858Y-7.6772
X3.6811Y-7.6772
X3.8189Y-7.6772
X3.9567Y-7.6772
X4.3307Y-3.4055
X4.3307Y-3.5433
X4.3307Y-3.8169
X4.3307Y-3.9547
X4.3307Y-4.0925
X4.3307Y-4.3681
X4.3307Y-4.5059
X4.3307Y-4.6437
X4.3307Y-4.9193
X4.3307Y-5.0571
X4.3307Y-5.1949
X4.3307Y-5.4705
X4.3307Y-5.6083
X4.3307Y-5.7461
X4.3307Y-6.0236
X4.3307Y-6.1614
X4.3307Y-6.2992
T9
X1.0827Y-2.6772
X1.0827Y-7.6969
X4.3307Y-2.6772
X4.3307Y-7.6969
T0
M30
