%TF.GenerationSoftware,KiCad,Pcbnew,7.0.9*%
%TF.CreationDate,2024-08-13T21:33:33-05:00*%
%TF.ProjectId,TestStand,54657374-5374-4616-9e64-2e6b69636164,rev?*%
%TF.SameCoordinates,Original*%
%TF.FileFunction,Soldermask,Top*%
%TF.FilePolarity,Negative*%
%FSLAX46Y46*%
G04 Gerber Fmt 4.6, Leading zero omitted, Abs format (unit mm)*
G04 Created by KiCad (PCBNEW 7.0.9) date 2024-08-13 21:33:33*
%MOMM*%
%LPD*%
G01*
G04 APERTURE LIST*
G04 Aperture macros list*
%AMRoundRect*
0 Rectangle with rounded corners*
0 $1 Rounding radius*
0 $2 $3 $4 $5 $6 $7 $8 $9 X,Y pos of 4 corners*
0 Add a 4 corners polygon primitive as box body*
4,1,4,$2,$3,$4,$5,$6,$7,$8,$9,$2,$3,0*
0 Add four circle primitives for the rounded corners*
1,1,$1+$1,$2,$3*
1,1,$1+$1,$4,$5*
1,1,$1+$1,$6,$7*
1,1,$1+$1,$8,$9*
0 Add four rect primitives between the rounded corners*
20,1,$1+$1,$2,$3,$4,$5,0*
20,1,$1+$1,$4,$5,$6,$7,0*
20,1,$1+$1,$6,$7,$8,$9,0*
20,1,$1+$1,$8,$9,$2,$3,0*%
%AMFreePoly0*
4,1,19,0.500000,-0.750000,0.000000,-0.750000,0.000000,-0.744911,-0.071157,-0.744911,-0.207708,-0.704816,-0.327430,-0.627875,-0.420627,-0.520320,-0.479746,-0.390866,-0.500000,-0.250000,-0.500000,0.250000,-0.479746,0.390866,-0.420627,0.520320,-0.327430,0.627875,-0.207708,0.704816,-0.071157,0.744911,0.000000,0.744911,0.000000,0.750000,0.500000,0.750000,0.500000,-0.750000,0.500000,-0.750000,
$1*%
%AMFreePoly1*
4,1,19,0.000000,0.744911,0.071157,0.744911,0.207708,0.704816,0.327430,0.627875,0.420627,0.520320,0.479746,0.390866,0.500000,0.250000,0.500000,-0.250000,0.479746,-0.390866,0.420627,-0.520320,0.327430,-0.627875,0.207708,-0.704816,0.071157,-0.744911,0.000000,-0.744911,0.000000,-0.750000,-0.500000,-0.750000,-0.500000,0.750000,0.000000,0.750000,0.000000,0.744911,0.000000,0.744911,
$1*%
G04 Aperture macros list end*
%ADD10R,1.651000X1.651000*%
%ADD11C,1.651000*%
%ADD12R,1.600000X1.600000*%
%ADD13C,1.600000*%
%ADD14C,6.400000*%
%ADD15O,1.600000X1.600000*%
%ADD16RoundRect,0.250000X-1.050000X0.750000X-1.050000X-0.750000X1.050000X-0.750000X1.050000X0.750000X0*%
%ADD17O,2.600000X2.000000*%
%ADD18R,1.980000X1.980000*%
%ADD19C,1.980000*%
%ADD20RoundRect,0.250000X0.475000X-0.250000X0.475000X0.250000X-0.475000X0.250000X-0.475000X-0.250000X0*%
%ADD21RoundRect,0.250000X0.250000X0.475000X-0.250000X0.475000X-0.250000X-0.475000X0.250000X-0.475000X0*%
%ADD22RoundRect,0.250000X0.450000X-0.262500X0.450000X0.262500X-0.450000X0.262500X-0.450000X-0.262500X0*%
%ADD23R,1.100000X0.600000*%
%ADD24R,0.558800X1.270000*%
%ADD25RoundRect,0.062500X0.062500X-0.350000X0.062500X0.350000X-0.062500X0.350000X-0.062500X-0.350000X0*%
%ADD26RoundRect,0.062500X0.350000X-0.062500X0.350000X0.062500X-0.350000X0.062500X-0.350000X-0.062500X0*%
%ADD27R,2.500000X2.500000*%
%ADD28RoundRect,0.150000X-0.150000X0.825000X-0.150000X-0.825000X0.150000X-0.825000X0.150000X0.825000X0*%
%ADD29RoundRect,0.250000X-0.450000X0.262500X-0.450000X-0.262500X0.450000X-0.262500X0.450000X0.262500X0*%
%ADD30RoundRect,0.250000X0.262500X0.450000X-0.262500X0.450000X-0.262500X-0.450000X0.262500X-0.450000X0*%
%ADD31RoundRect,0.218750X0.218750X0.381250X-0.218750X0.381250X-0.218750X-0.381250X0.218750X-0.381250X0*%
%ADD32RoundRect,0.218750X0.381250X-0.218750X0.381250X0.218750X-0.381250X0.218750X-0.381250X-0.218750X0*%
%ADD33R,2.290000X5.080000*%
%ADD34R,2.420000X5.080000*%
%ADD35RoundRect,0.250000X1.050000X-0.750000X1.050000X0.750000X-1.050000X0.750000X-1.050000X-0.750000X0*%
%ADD36RoundRect,0.218750X-0.381250X0.218750X-0.381250X-0.218750X0.381250X-0.218750X0.381250X0.218750X0*%
%ADD37RoundRect,0.250000X-0.250000X-0.475000X0.250000X-0.475000X0.250000X0.475000X-0.250000X0.475000X0*%
%ADD38RoundRect,0.250000X-0.750000X-1.050000X0.750000X-1.050000X0.750000X1.050000X-0.750000X1.050000X0*%
%ADD39O,2.000000X2.600000*%
%ADD40FreePoly0,90.000000*%
%ADD41FreePoly1,90.000000*%
%ADD42RoundRect,0.250000X-0.262500X-0.450000X0.262500X-0.450000X0.262500X0.450000X-0.262500X0.450000X0*%
%ADD43R,0.650000X1.100000*%
%ADD44RoundRect,0.150000X-0.850000X-0.150000X0.850000X-0.150000X0.850000X0.150000X-0.850000X0.150000X0*%
%ADD45RoundRect,0.250000X-0.475000X0.250000X-0.475000X-0.250000X0.475000X-0.250000X0.475000X0.250000X0*%
%ADD46RoundRect,0.218750X-0.218750X-0.381250X0.218750X-0.381250X0.218750X0.381250X-0.218750X0.381250X0*%
G04 APERTURE END LIST*
D10*
%TO.C,CR6*%
X101500000Y-187080000D03*
D11*
X101500000Y-184540000D03*
X101500000Y-182000000D03*
%TD*%
D12*
%TO.C,U4*%
X68300000Y-101460000D03*
D13*
X68300000Y-104000000D03*
X68300000Y-106540000D03*
X68300000Y-109080000D03*
X68300000Y-111620000D03*
X68300000Y-114160000D03*
X68300000Y-116700000D03*
X68300000Y-119240000D03*
X68300000Y-121780000D03*
X68300000Y-124320000D03*
X68300000Y-126860000D03*
X68300000Y-129400000D03*
X68300000Y-131940000D03*
X68300000Y-134480000D03*
X68300000Y-137020000D03*
X68300000Y-139560000D03*
X68300000Y-142100000D03*
X68300000Y-144640000D03*
X68300000Y-147180000D03*
X68300000Y-149720000D03*
X68300000Y-152260000D03*
X68300000Y-154800000D03*
X68300000Y-157340000D03*
X68300000Y-159880000D03*
X83540000Y-159880000D03*
X83540000Y-157340000D03*
X83540000Y-154800000D03*
X83540000Y-152260000D03*
X83540000Y-149720000D03*
X83540000Y-147180000D03*
X83540000Y-144640000D03*
X83540000Y-142100000D03*
X83540000Y-139560000D03*
X83540000Y-137020000D03*
X83540000Y-134480000D03*
X83540000Y-131940000D03*
X83540000Y-129400000D03*
X83540000Y-126860000D03*
X83540000Y-124320000D03*
X83540000Y-121780000D03*
X83540000Y-119240000D03*
X83540000Y-116700000D03*
X83540000Y-114160000D03*
X83540000Y-111620000D03*
X83540000Y-109080000D03*
X83540000Y-106540000D03*
X83540000Y-104000000D03*
X83540000Y-101460000D03*
%TD*%
D14*
%TO.C,H4*%
X27500000Y-195500000D03*
%TD*%
%TO.C,H3*%
X110000000Y-195500000D03*
%TD*%
%TO.C,H2*%
X110000000Y-68000000D03*
%TD*%
%TO.C,H1*%
X27500000Y-68000000D03*
%TD*%
D12*
%TO.C,SW1*%
X36000000Y-176500000D03*
D15*
X36000000Y-184120000D03*
%TD*%
D16*
%TO.C,J17*%
X28000000Y-178500000D03*
D17*
X28000000Y-182000000D03*
%TD*%
D10*
%TO.C,CR5*%
X87000000Y-187000000D03*
D11*
X87000000Y-184460000D03*
X87000000Y-181920000D03*
%TD*%
D10*
%TO.C,CR4*%
X72500000Y-187050000D03*
D11*
X72500000Y-184510000D03*
X72500000Y-181970000D03*
%TD*%
%TO.C,CR3*%
X58068200Y-181857100D03*
X58068200Y-184397100D03*
D10*
X58068200Y-186937100D03*
%TD*%
%TO.C,CR2*%
X43431800Y-187000000D03*
D11*
X43431800Y-184460000D03*
X43431800Y-181920000D03*
%TD*%
D10*
%TO.C,CR1*%
X43500000Y-175580000D03*
D11*
X43500000Y-173040000D03*
X43500000Y-170500000D03*
%TD*%
D18*
%TO.C,IC1*%
X36770000Y-172050000D03*
D19*
X36770000Y-169500000D03*
X36770000Y-166950000D03*
%TD*%
D20*
%TO.C,C37*%
X105000000Y-183512900D03*
X105000000Y-181612900D03*
%TD*%
%TO.C,C36*%
X105000000Y-187512900D03*
X105000000Y-185612900D03*
%TD*%
%TO.C,C35*%
X90568200Y-181550000D03*
X90568200Y-183450000D03*
%TD*%
%TO.C,C34*%
X90568200Y-185550000D03*
X90568200Y-187450000D03*
%TD*%
%TO.C,C33*%
X76068200Y-183437100D03*
X76068200Y-181537100D03*
%TD*%
%TO.C,C32*%
X76068200Y-187437100D03*
X76068200Y-185537100D03*
%TD*%
%TO.C,C31*%
X61636400Y-183324200D03*
X61636400Y-181424200D03*
%TD*%
%TO.C,C30*%
X61636400Y-187224200D03*
X61636400Y-185324200D03*
%TD*%
%TO.C,C29*%
X47000000Y-183387100D03*
X47000000Y-181487100D03*
%TD*%
%TO.C,C28*%
X47000000Y-187387100D03*
X47000000Y-185487100D03*
%TD*%
D21*
%TO.C,C27*%
X48950000Y-173080000D03*
X47050000Y-173080000D03*
%TD*%
%TO.C,C26*%
X48950000Y-170580000D03*
X47050000Y-170580000D03*
%TD*%
D22*
%TO.C,R20*%
X59500000Y-153912500D03*
X59500000Y-152087500D03*
%TD*%
D16*
%TO.C,J16*%
X28000000Y-167500000D03*
D17*
X28000000Y-171000000D03*
%TD*%
D22*
%TO.C,R18*%
X71500000Y-88622500D03*
X71500000Y-86797500D03*
%TD*%
D23*
%TO.C,Y1*%
X82000000Y-89410000D03*
X82000000Y-88010000D03*
%TD*%
D24*
%TO.C,U8*%
X65500000Y-92648400D03*
X66452500Y-92648400D03*
X67405000Y-92648400D03*
X67405000Y-90210000D03*
X65500000Y-90210000D03*
%TD*%
D25*
%TO.C,U7*%
X74500000Y-91585000D03*
X75000000Y-91585000D03*
X75500000Y-91585000D03*
X76000000Y-91585000D03*
X76500000Y-91585000D03*
D26*
X77437500Y-90647500D03*
X77437500Y-90147500D03*
X77437500Y-89647500D03*
X77437500Y-89147500D03*
X77437500Y-88647500D03*
D25*
X76500000Y-87710000D03*
X76000000Y-87710000D03*
X75500000Y-87710000D03*
X75000000Y-87710000D03*
X74500000Y-87710000D03*
D26*
X73562500Y-88647500D03*
X73562500Y-89147500D03*
X73562500Y-89647500D03*
X73562500Y-90147500D03*
X73562500Y-90647500D03*
D27*
X75500000Y-89647500D03*
%TD*%
D28*
%TO.C,U6*%
X100405000Y-97025000D03*
X99135000Y-97025000D03*
X97865000Y-97025000D03*
X96595000Y-97025000D03*
X96595000Y-101975000D03*
X97865000Y-101975000D03*
X99135000Y-101975000D03*
X100405000Y-101975000D03*
%TD*%
D24*
%TO.C,U5*%
X93500000Y-94500000D03*
X92547500Y-94500000D03*
X91595000Y-94500000D03*
X91595000Y-96938400D03*
X93500000Y-96938400D03*
%TD*%
D29*
%TO.C,R19*%
X80000000Y-87885000D03*
X80000000Y-89710000D03*
%TD*%
D30*
%TO.C,R17*%
X100912500Y-105500000D03*
X99087500Y-105500000D03*
%TD*%
%TO.C,R16*%
X95587500Y-105500000D03*
X97412500Y-105500000D03*
%TD*%
D31*
%TO.C,L6*%
X74562500Y-79147500D03*
X72437500Y-79147500D03*
%TD*%
%TO.C,L5*%
X77062500Y-76710000D03*
X74937500Y-76710000D03*
%TD*%
D32*
%TO.C,L4*%
X77000000Y-80772500D03*
X77000000Y-78647500D03*
%TD*%
D33*
%TO.C,J15*%
X72500000Y-67280000D03*
D34*
X76880000Y-67280000D03*
X68120000Y-67280000D03*
%TD*%
D35*
%TO.C,J14*%
X110000000Y-90000000D03*
D17*
X110000000Y-86500000D03*
%TD*%
D36*
%TO.C,FB2*%
X99500000Y-87437500D03*
X99500000Y-89562500D03*
%TD*%
%TO.C,FB1*%
X97500000Y-87437500D03*
X97500000Y-89562500D03*
%TD*%
D12*
%TO.C,D2*%
X100000000Y-115620000D03*
D15*
X100000000Y-108000000D03*
%TD*%
D12*
%TO.C,D1*%
X96500000Y-115620000D03*
D15*
X96500000Y-108000000D03*
%TD*%
D21*
%TO.C,C25*%
X67450000Y-87710000D03*
X65550000Y-87710000D03*
%TD*%
%TO.C,C24*%
X67450000Y-85210000D03*
X65550000Y-85210000D03*
%TD*%
%TO.C,C23*%
X67450000Y-82710000D03*
X65550000Y-82710000D03*
%TD*%
%TO.C,C22*%
X76950000Y-74210000D03*
X75050000Y-74210000D03*
%TD*%
D20*
%TO.C,C21*%
X72500000Y-77160000D03*
X72500000Y-75260000D03*
%TD*%
D37*
%TO.C,C20*%
X77050000Y-85210000D03*
X78950000Y-85210000D03*
%TD*%
%TO.C,C19*%
X77050000Y-82710000D03*
X78950000Y-82710000D03*
%TD*%
%TO.C,C18*%
X84000000Y-89710000D03*
X85900000Y-89710000D03*
%TD*%
%TO.C,C17*%
X84000000Y-87710000D03*
X85900000Y-87710000D03*
%TD*%
D20*
%TO.C,C16*%
X71500000Y-92660000D03*
X71500000Y-90760000D03*
%TD*%
D21*
%TO.C,C15*%
X93450000Y-102000000D03*
X91550000Y-102000000D03*
%TD*%
%TO.C,C14*%
X93450000Y-99500000D03*
X91550000Y-99500000D03*
%TD*%
D37*
%TO.C,C13*%
X97550000Y-92500000D03*
X99450000Y-92500000D03*
%TD*%
D38*
%TO.C,J5*%
X50000000Y-195000000D03*
D39*
X53500000Y-195000000D03*
X57000000Y-195000000D03*
%TD*%
D35*
%TO.C,J12*%
X110000000Y-117950000D03*
D17*
X110000000Y-114450000D03*
X110000000Y-110950000D03*
%TD*%
D38*
%TO.C,J7*%
X79000000Y-195000000D03*
D39*
X82500000Y-195000000D03*
X86000000Y-195000000D03*
%TD*%
D40*
%TO.C,JP3*%
X59000000Y-138500000D03*
D41*
X59000000Y-137200000D03*
%TD*%
D35*
%TO.C,J13*%
X110000000Y-103950000D03*
D17*
X110000000Y-100450000D03*
X110000000Y-96950000D03*
%TD*%
D20*
%TO.C,C12*%
X45500000Y-141800000D03*
X45500000Y-139900000D03*
%TD*%
D42*
%TO.C,R2*%
X40675000Y-92000000D03*
X42500000Y-92000000D03*
%TD*%
D35*
%TO.C,J11*%
X110000000Y-131950000D03*
D17*
X110000000Y-128450000D03*
X110000000Y-124950000D03*
%TD*%
D40*
%TO.C,JP1*%
X57500000Y-85300000D03*
D41*
X57500000Y-84000000D03*
%TD*%
D43*
%TO.C,Q1*%
X44920000Y-81500000D03*
X43000000Y-81500000D03*
X43960000Y-83600000D03*
%TD*%
D42*
%TO.C,R3*%
X40675000Y-90000000D03*
X42500000Y-90000000D03*
%TD*%
D35*
%TO.C,J2*%
X27500000Y-132000000D03*
D17*
X27500000Y-128500000D03*
X27500000Y-125000000D03*
X27500000Y-121500000D03*
X27500000Y-118000000D03*
X27500000Y-114500000D03*
X27500000Y-111000000D03*
%TD*%
D44*
%TO.C,U1*%
X47387500Y-81915000D03*
X47387500Y-83185000D03*
X47387500Y-84455000D03*
X47387500Y-85725000D03*
X47387500Y-86995000D03*
X47387500Y-88265000D03*
X47387500Y-89535000D03*
X47387500Y-90805000D03*
X52387500Y-90805000D03*
X52387500Y-89535000D03*
X52387500Y-88265000D03*
X52387500Y-86995000D03*
X52387500Y-85725000D03*
X52387500Y-84455000D03*
X52387500Y-83185000D03*
X52387500Y-81915000D03*
%TD*%
D20*
%TO.C,C10*%
X36500000Y-138050000D03*
X36500000Y-136150000D03*
%TD*%
D42*
%TO.C,R8*%
X40500000Y-122000000D03*
X42325000Y-122000000D03*
%TD*%
D45*
%TO.C,C7*%
X44500000Y-120050000D03*
X44500000Y-121950000D03*
%TD*%
D22*
%TO.C,R15*%
X56000000Y-137000000D03*
X56000000Y-135175000D03*
%TD*%
D38*
%TO.C,J8*%
X93500000Y-195000000D03*
D39*
X97000000Y-195000000D03*
X100500000Y-195000000D03*
%TD*%
D46*
%TO.C,L1*%
X38375000Y-84000000D03*
X40500000Y-84000000D03*
%TD*%
D40*
%TO.C,JP2*%
X58500000Y-115150000D03*
D41*
X58500000Y-113850000D03*
%TD*%
D20*
%TO.C,C2*%
X44500000Y-88400000D03*
X44500000Y-86500000D03*
%TD*%
%TO.C,C6*%
X38500000Y-114900000D03*
X38500000Y-113000000D03*
%TD*%
D44*
%TO.C,U3*%
X48000000Y-135500000D03*
X48000000Y-136770000D03*
X48000000Y-138040000D03*
X48000000Y-139310000D03*
X48000000Y-140580000D03*
X48000000Y-141850000D03*
X48000000Y-143120000D03*
X48000000Y-144390000D03*
X53000000Y-144390000D03*
X53000000Y-143120000D03*
X53000000Y-141850000D03*
X53000000Y-140580000D03*
X53000000Y-139310000D03*
X53000000Y-138040000D03*
X53000000Y-136770000D03*
X53000000Y-135500000D03*
%TD*%
D42*
%TO.C,R14*%
X41500000Y-139500000D03*
X43325000Y-139500000D03*
%TD*%
D22*
%TO.C,R10*%
X55000000Y-113912500D03*
X55000000Y-112087500D03*
%TD*%
D42*
%TO.C,R11*%
X41500000Y-141500000D03*
X43325000Y-141500000D03*
%TD*%
%TO.C,R12*%
X41500000Y-145500000D03*
X43325000Y-145500000D03*
%TD*%
D20*
%TO.C,C4*%
X34000000Y-84400000D03*
X34000000Y-82500000D03*
%TD*%
D42*
%TO.C,R5*%
X40675000Y-86000000D03*
X42500000Y-86000000D03*
%TD*%
%TO.C,R6*%
X40500000Y-119500000D03*
X42325000Y-119500000D03*
%TD*%
D20*
%TO.C,C8*%
X44500000Y-118500000D03*
X44500000Y-116600000D03*
%TD*%
D38*
%TO.C,J4*%
X35500000Y-195000000D03*
D39*
X39000000Y-195000000D03*
X42500000Y-195000000D03*
%TD*%
D20*
%TO.C,C9*%
X34000000Y-138050000D03*
X34000000Y-136150000D03*
%TD*%
D46*
%TO.C,L2*%
X40437500Y-115000000D03*
X42562500Y-115000000D03*
%TD*%
D22*
%TO.C,R1*%
X55000000Y-83500000D03*
X55000000Y-81675000D03*
%TD*%
D35*
%TO.C,J9*%
X110000000Y-160000000D03*
D17*
X110000000Y-156500000D03*
X110000000Y-153000000D03*
%TD*%
D42*
%TO.C,R7*%
X40500000Y-124000000D03*
X42325000Y-124000000D03*
%TD*%
D35*
%TO.C,J10*%
X110000000Y-145950000D03*
D17*
X110000000Y-142450000D03*
X110000000Y-138950000D03*
%TD*%
D20*
%TO.C,C3*%
X36500000Y-84400000D03*
X36500000Y-82500000D03*
%TD*%
%TO.C,C5*%
X36000000Y-114950000D03*
X36000000Y-113050000D03*
%TD*%
D45*
%TO.C,C1*%
X44500000Y-90000000D03*
X44500000Y-91900000D03*
%TD*%
D43*
%TO.C,Q2*%
X44960000Y-109400000D03*
X43040000Y-109400000D03*
X44000000Y-111500000D03*
%TD*%
%TO.C,Q3*%
X44960000Y-133900000D03*
X43040000Y-133900000D03*
X44000000Y-136000000D03*
%TD*%
D42*
%TO.C,R4*%
X40675000Y-88000000D03*
X42500000Y-88000000D03*
%TD*%
D35*
%TO.C,J1*%
X27500000Y-104000000D03*
D17*
X27500000Y-100500000D03*
X27500000Y-97000000D03*
X27500000Y-93500000D03*
X27500000Y-90000000D03*
X27500000Y-86500000D03*
X27500000Y-83000000D03*
%TD*%
D38*
%TO.C,J6*%
X64500000Y-195000000D03*
D39*
X68000000Y-195000000D03*
X71500000Y-195000000D03*
%TD*%
D42*
%TO.C,R13*%
X41500000Y-143500000D03*
X43325000Y-143500000D03*
%TD*%
D45*
%TO.C,C11*%
X45500000Y-143500000D03*
X45500000Y-145400000D03*
%TD*%
D46*
%TO.C,L3*%
X39000000Y-137000000D03*
X41125000Y-137000000D03*
%TD*%
D35*
%TO.C,J3*%
X27500000Y-160000000D03*
D17*
X27500000Y-156500000D03*
X27500000Y-153000000D03*
X27500000Y-149500000D03*
X27500000Y-146000000D03*
X27500000Y-142500000D03*
X27500000Y-139000000D03*
%TD*%
D44*
%TO.C,U2*%
X47387500Y-112230000D03*
X47387500Y-113500000D03*
X47387500Y-114770000D03*
X47387500Y-116040000D03*
X47387500Y-117310000D03*
X47387500Y-118580000D03*
X47387500Y-119850000D03*
X47387500Y-121120000D03*
X52387500Y-121120000D03*
X52387500Y-119850000D03*
X52387500Y-118580000D03*
X52387500Y-117310000D03*
X52387500Y-116040000D03*
X52387500Y-114770000D03*
X52387500Y-113500000D03*
X52387500Y-112230000D03*
%TD*%
D42*
%TO.C,R9*%
X40500000Y-117500000D03*
X42325000Y-117500000D03*
%TD*%
M02*
