%TF.GenerationSoftware,KiCad,Pcbnew,7.0.9*%
%TF.CreationDate,2024-08-13T21:33:33-05:00*%
%TF.ProjectId,TestStand,54657374-5374-4616-9e64-2e6b69636164,rev?*%
%TF.SameCoordinates,Original*%
%TF.FileFunction,Other,Comment*%
%FSLAX46Y46*%
G04 Gerber Fmt 4.6, Leading zero omitted, Abs format (unit mm)*
G04 Created by KiCad (PCBNEW 7.0.9) date 2024-08-13 21:33:33*
%MOMM*%
%LPD*%
G01*
G04 APERTURE LIST*
%ADD10C,0.150000*%
G04 APERTURE END LIST*
D10*
X144804819Y-136273809D02*
X144804819Y-136845237D01*
X144804819Y-136559523D02*
X143804819Y-136559523D01*
X143804819Y-136559523D02*
X143947676Y-136654761D01*
X143947676Y-136654761D02*
X144042914Y-136749999D01*
X144042914Y-136749999D02*
X144090533Y-136845237D01*
X143804819Y-135940475D02*
X143804819Y-135321428D01*
X143804819Y-135321428D02*
X144185771Y-135654761D01*
X144185771Y-135654761D02*
X144185771Y-135511904D01*
X144185771Y-135511904D02*
X144233390Y-135416666D01*
X144233390Y-135416666D02*
X144281009Y-135369047D01*
X144281009Y-135369047D02*
X144376247Y-135321428D01*
X144376247Y-135321428D02*
X144614342Y-135321428D01*
X144614342Y-135321428D02*
X144709580Y-135369047D01*
X144709580Y-135369047D02*
X144757200Y-135416666D01*
X144757200Y-135416666D02*
X144804819Y-135511904D01*
X144804819Y-135511904D02*
X144804819Y-135797618D01*
X144804819Y-135797618D02*
X144757200Y-135892856D01*
X144757200Y-135892856D02*
X144709580Y-135940475D01*
X143804819Y-134988094D02*
X143804819Y-134321428D01*
X143804819Y-134321428D02*
X144804819Y-134749999D01*
X144709580Y-133940475D02*
X144757200Y-133892856D01*
X144757200Y-133892856D02*
X144804819Y-133940475D01*
X144804819Y-133940475D02*
X144757200Y-133988094D01*
X144757200Y-133988094D02*
X144709580Y-133940475D01*
X144709580Y-133940475D02*
X144804819Y-133940475D01*
X143804819Y-132988095D02*
X143804819Y-133464285D01*
X143804819Y-133464285D02*
X144281009Y-133511904D01*
X144281009Y-133511904D02*
X144233390Y-133464285D01*
X144233390Y-133464285D02*
X144185771Y-133369047D01*
X144185771Y-133369047D02*
X144185771Y-133130952D01*
X144185771Y-133130952D02*
X144233390Y-133035714D01*
X144233390Y-133035714D02*
X144281009Y-132988095D01*
X144281009Y-132988095D02*
X144376247Y-132940476D01*
X144376247Y-132940476D02*
X144614342Y-132940476D01*
X144614342Y-132940476D02*
X144709580Y-132988095D01*
X144709580Y-132988095D02*
X144757200Y-133035714D01*
X144757200Y-133035714D02*
X144804819Y-133130952D01*
X144804819Y-133130952D02*
X144804819Y-133369047D01*
X144804819Y-133369047D02*
X144757200Y-133464285D01*
X144757200Y-133464285D02*
X144709580Y-133511904D01*
X143804819Y-132321428D02*
X143804819Y-132226190D01*
X143804819Y-132226190D02*
X143852438Y-132130952D01*
X143852438Y-132130952D02*
X143900057Y-132083333D01*
X143900057Y-132083333D02*
X143995295Y-132035714D01*
X143995295Y-132035714D02*
X144185771Y-131988095D01*
X144185771Y-131988095D02*
X144423866Y-131988095D01*
X144423866Y-131988095D02*
X144614342Y-132035714D01*
X144614342Y-132035714D02*
X144709580Y-132083333D01*
X144709580Y-132083333D02*
X144757200Y-132130952D01*
X144757200Y-132130952D02*
X144804819Y-132226190D01*
X144804819Y-132226190D02*
X144804819Y-132321428D01*
X144804819Y-132321428D02*
X144757200Y-132416666D01*
X144757200Y-132416666D02*
X144709580Y-132464285D01*
X144709580Y-132464285D02*
X144614342Y-132511904D01*
X144614342Y-132511904D02*
X144423866Y-132559523D01*
X144423866Y-132559523D02*
X144185771Y-132559523D01*
X144185771Y-132559523D02*
X143995295Y-132511904D01*
X143995295Y-132511904D02*
X143900057Y-132464285D01*
X143900057Y-132464285D02*
X143852438Y-132416666D01*
X143852438Y-132416666D02*
X143804819Y-132321428D01*
X143804819Y-131369047D02*
X143804819Y-131273809D01*
X143804819Y-131273809D02*
X143852438Y-131178571D01*
X143852438Y-131178571D02*
X143900057Y-131130952D01*
X143900057Y-131130952D02*
X143995295Y-131083333D01*
X143995295Y-131083333D02*
X144185771Y-131035714D01*
X144185771Y-131035714D02*
X144423866Y-131035714D01*
X144423866Y-131035714D02*
X144614342Y-131083333D01*
X144614342Y-131083333D02*
X144709580Y-131130952D01*
X144709580Y-131130952D02*
X144757200Y-131178571D01*
X144757200Y-131178571D02*
X144804819Y-131273809D01*
X144804819Y-131273809D02*
X144804819Y-131369047D01*
X144804819Y-131369047D02*
X144757200Y-131464285D01*
X144757200Y-131464285D02*
X144709580Y-131511904D01*
X144709580Y-131511904D02*
X144614342Y-131559523D01*
X144614342Y-131559523D02*
X144423866Y-131607142D01*
X144423866Y-131607142D02*
X144185771Y-131607142D01*
X144185771Y-131607142D02*
X143995295Y-131559523D01*
X143995295Y-131559523D02*
X143900057Y-131511904D01*
X143900057Y-131511904D02*
X143852438Y-131464285D01*
X143852438Y-131464285D02*
X143804819Y-131369047D01*
X143804819Y-130416666D02*
X143804819Y-130321428D01*
X143804819Y-130321428D02*
X143852438Y-130226190D01*
X143852438Y-130226190D02*
X143900057Y-130178571D01*
X143900057Y-130178571D02*
X143995295Y-130130952D01*
X143995295Y-130130952D02*
X144185771Y-130083333D01*
X144185771Y-130083333D02*
X144423866Y-130083333D01*
X144423866Y-130083333D02*
X144614342Y-130130952D01*
X144614342Y-130130952D02*
X144709580Y-130178571D01*
X144709580Y-130178571D02*
X144757200Y-130226190D01*
X144757200Y-130226190D02*
X144804819Y-130321428D01*
X144804819Y-130321428D02*
X144804819Y-130416666D01*
X144804819Y-130416666D02*
X144757200Y-130511904D01*
X144757200Y-130511904D02*
X144709580Y-130559523D01*
X144709580Y-130559523D02*
X144614342Y-130607142D01*
X144614342Y-130607142D02*
X144423866Y-130654761D01*
X144423866Y-130654761D02*
X144185771Y-130654761D01*
X144185771Y-130654761D02*
X143995295Y-130607142D01*
X143995295Y-130607142D02*
X143900057Y-130559523D01*
X143900057Y-130559523D02*
X143852438Y-130511904D01*
X143852438Y-130511904D02*
X143804819Y-130416666D01*
X144804819Y-128892856D02*
X144138152Y-128892856D01*
X144233390Y-128892856D02*
X144185771Y-128845237D01*
X144185771Y-128845237D02*
X144138152Y-128749999D01*
X144138152Y-128749999D02*
X144138152Y-128607142D01*
X144138152Y-128607142D02*
X144185771Y-128511904D01*
X144185771Y-128511904D02*
X144281009Y-128464285D01*
X144281009Y-128464285D02*
X144804819Y-128464285D01*
X144281009Y-128464285D02*
X144185771Y-128416666D01*
X144185771Y-128416666D02*
X144138152Y-128321428D01*
X144138152Y-128321428D02*
X144138152Y-128178571D01*
X144138152Y-128178571D02*
X144185771Y-128083332D01*
X144185771Y-128083332D02*
X144281009Y-128035713D01*
X144281009Y-128035713D02*
X144804819Y-128035713D01*
X144804819Y-127559523D02*
X144138152Y-127559523D01*
X144233390Y-127559523D02*
X144185771Y-127511904D01*
X144185771Y-127511904D02*
X144138152Y-127416666D01*
X144138152Y-127416666D02*
X144138152Y-127273809D01*
X144138152Y-127273809D02*
X144185771Y-127178571D01*
X144185771Y-127178571D02*
X144281009Y-127130952D01*
X144281009Y-127130952D02*
X144804819Y-127130952D01*
X144281009Y-127130952D02*
X144185771Y-127083333D01*
X144185771Y-127083333D02*
X144138152Y-126988095D01*
X144138152Y-126988095D02*
X144138152Y-126845238D01*
X144138152Y-126845238D02*
X144185771Y-126749999D01*
X144185771Y-126749999D02*
X144281009Y-126702380D01*
X144281009Y-126702380D02*
X144804819Y-126702380D01*
X115500000Y-200500000D02*
X146086420Y-200500000D01*
X115500000Y-63000000D02*
X146086420Y-63000000D01*
X145500000Y-200500000D02*
X145500000Y-63000000D01*
X145500000Y-200500000D02*
X145500000Y-63000000D01*
X145500000Y-200500000D02*
X144913579Y-199373496D01*
X145500000Y-200500000D02*
X146086421Y-199373496D01*
X145500000Y-63000000D02*
X146086421Y-64126504D01*
X145500000Y-63000000D02*
X144913579Y-64126504D01*
X64226191Y-214804818D02*
X64416667Y-214804818D01*
X64416667Y-214804818D02*
X64511905Y-214757199D01*
X64511905Y-214757199D02*
X64559524Y-214709579D01*
X64559524Y-214709579D02*
X64654762Y-214566722D01*
X64654762Y-214566722D02*
X64702381Y-214376246D01*
X64702381Y-214376246D02*
X64702381Y-213995294D01*
X64702381Y-213995294D02*
X64654762Y-213900056D01*
X64654762Y-213900056D02*
X64607143Y-213852437D01*
X64607143Y-213852437D02*
X64511905Y-213804818D01*
X64511905Y-213804818D02*
X64321429Y-213804818D01*
X64321429Y-213804818D02*
X64226191Y-213852437D01*
X64226191Y-213852437D02*
X64178572Y-213900056D01*
X64178572Y-213900056D02*
X64130953Y-213995294D01*
X64130953Y-213995294D02*
X64130953Y-214233389D01*
X64130953Y-214233389D02*
X64178572Y-214328627D01*
X64178572Y-214328627D02*
X64226191Y-214376246D01*
X64226191Y-214376246D02*
X64321429Y-214423865D01*
X64321429Y-214423865D02*
X64511905Y-214423865D01*
X64511905Y-214423865D02*
X64607143Y-214376246D01*
X64607143Y-214376246D02*
X64654762Y-214328627D01*
X64654762Y-214328627D02*
X64702381Y-214233389D01*
X65083334Y-213900056D02*
X65130953Y-213852437D01*
X65130953Y-213852437D02*
X65226191Y-213804818D01*
X65226191Y-213804818D02*
X65464286Y-213804818D01*
X65464286Y-213804818D02*
X65559524Y-213852437D01*
X65559524Y-213852437D02*
X65607143Y-213900056D01*
X65607143Y-213900056D02*
X65654762Y-213995294D01*
X65654762Y-213995294D02*
X65654762Y-214090532D01*
X65654762Y-214090532D02*
X65607143Y-214233389D01*
X65607143Y-214233389D02*
X65035715Y-214804818D01*
X65035715Y-214804818D02*
X65654762Y-214804818D01*
X66083334Y-214709579D02*
X66130953Y-214757199D01*
X66130953Y-214757199D02*
X66083334Y-214804818D01*
X66083334Y-214804818D02*
X66035715Y-214757199D01*
X66035715Y-214757199D02*
X66083334Y-214709579D01*
X66083334Y-214709579D02*
X66083334Y-214804818D01*
X67035714Y-213804818D02*
X66559524Y-213804818D01*
X66559524Y-213804818D02*
X66511905Y-214281008D01*
X66511905Y-214281008D02*
X66559524Y-214233389D01*
X66559524Y-214233389D02*
X66654762Y-214185770D01*
X66654762Y-214185770D02*
X66892857Y-214185770D01*
X66892857Y-214185770D02*
X66988095Y-214233389D01*
X66988095Y-214233389D02*
X67035714Y-214281008D01*
X67035714Y-214281008D02*
X67083333Y-214376246D01*
X67083333Y-214376246D02*
X67083333Y-214614341D01*
X67083333Y-214614341D02*
X67035714Y-214709579D01*
X67035714Y-214709579D02*
X66988095Y-214757199D01*
X66988095Y-214757199D02*
X66892857Y-214804818D01*
X66892857Y-214804818D02*
X66654762Y-214804818D01*
X66654762Y-214804818D02*
X66559524Y-214757199D01*
X66559524Y-214757199D02*
X66511905Y-214709579D01*
X67702381Y-213804818D02*
X67797619Y-213804818D01*
X67797619Y-213804818D02*
X67892857Y-213852437D01*
X67892857Y-213852437D02*
X67940476Y-213900056D01*
X67940476Y-213900056D02*
X67988095Y-213995294D01*
X67988095Y-213995294D02*
X68035714Y-214185770D01*
X68035714Y-214185770D02*
X68035714Y-214423865D01*
X68035714Y-214423865D02*
X67988095Y-214614341D01*
X67988095Y-214614341D02*
X67940476Y-214709579D01*
X67940476Y-214709579D02*
X67892857Y-214757199D01*
X67892857Y-214757199D02*
X67797619Y-214804818D01*
X67797619Y-214804818D02*
X67702381Y-214804818D01*
X67702381Y-214804818D02*
X67607143Y-214757199D01*
X67607143Y-214757199D02*
X67559524Y-214709579D01*
X67559524Y-214709579D02*
X67511905Y-214614341D01*
X67511905Y-214614341D02*
X67464286Y-214423865D01*
X67464286Y-214423865D02*
X67464286Y-214185770D01*
X67464286Y-214185770D02*
X67511905Y-213995294D01*
X67511905Y-213995294D02*
X67559524Y-213900056D01*
X67559524Y-213900056D02*
X67607143Y-213852437D01*
X67607143Y-213852437D02*
X67702381Y-213804818D01*
X68654762Y-213804818D02*
X68750000Y-213804818D01*
X68750000Y-213804818D02*
X68845238Y-213852437D01*
X68845238Y-213852437D02*
X68892857Y-213900056D01*
X68892857Y-213900056D02*
X68940476Y-213995294D01*
X68940476Y-213995294D02*
X68988095Y-214185770D01*
X68988095Y-214185770D02*
X68988095Y-214423865D01*
X68988095Y-214423865D02*
X68940476Y-214614341D01*
X68940476Y-214614341D02*
X68892857Y-214709579D01*
X68892857Y-214709579D02*
X68845238Y-214757199D01*
X68845238Y-214757199D02*
X68750000Y-214804818D01*
X68750000Y-214804818D02*
X68654762Y-214804818D01*
X68654762Y-214804818D02*
X68559524Y-214757199D01*
X68559524Y-214757199D02*
X68511905Y-214709579D01*
X68511905Y-214709579D02*
X68464286Y-214614341D01*
X68464286Y-214614341D02*
X68416667Y-214423865D01*
X68416667Y-214423865D02*
X68416667Y-214185770D01*
X68416667Y-214185770D02*
X68464286Y-213995294D01*
X68464286Y-213995294D02*
X68511905Y-213900056D01*
X68511905Y-213900056D02*
X68559524Y-213852437D01*
X68559524Y-213852437D02*
X68654762Y-213804818D01*
X69607143Y-213804818D02*
X69702381Y-213804818D01*
X69702381Y-213804818D02*
X69797619Y-213852437D01*
X69797619Y-213852437D02*
X69845238Y-213900056D01*
X69845238Y-213900056D02*
X69892857Y-213995294D01*
X69892857Y-213995294D02*
X69940476Y-214185770D01*
X69940476Y-214185770D02*
X69940476Y-214423865D01*
X69940476Y-214423865D02*
X69892857Y-214614341D01*
X69892857Y-214614341D02*
X69845238Y-214709579D01*
X69845238Y-214709579D02*
X69797619Y-214757199D01*
X69797619Y-214757199D02*
X69702381Y-214804818D01*
X69702381Y-214804818D02*
X69607143Y-214804818D01*
X69607143Y-214804818D02*
X69511905Y-214757199D01*
X69511905Y-214757199D02*
X69464286Y-214709579D01*
X69464286Y-214709579D02*
X69416667Y-214614341D01*
X69416667Y-214614341D02*
X69369048Y-214423865D01*
X69369048Y-214423865D02*
X69369048Y-214185770D01*
X69369048Y-214185770D02*
X69416667Y-213995294D01*
X69416667Y-213995294D02*
X69464286Y-213900056D01*
X69464286Y-213900056D02*
X69511905Y-213852437D01*
X69511905Y-213852437D02*
X69607143Y-213804818D01*
X71130953Y-214804818D02*
X71130953Y-214138151D01*
X71130953Y-214233389D02*
X71178572Y-214185770D01*
X71178572Y-214185770D02*
X71273810Y-214138151D01*
X71273810Y-214138151D02*
X71416667Y-214138151D01*
X71416667Y-214138151D02*
X71511905Y-214185770D01*
X71511905Y-214185770D02*
X71559524Y-214281008D01*
X71559524Y-214281008D02*
X71559524Y-214804818D01*
X71559524Y-214281008D02*
X71607143Y-214185770D01*
X71607143Y-214185770D02*
X71702381Y-214138151D01*
X71702381Y-214138151D02*
X71845238Y-214138151D01*
X71845238Y-214138151D02*
X71940477Y-214185770D01*
X71940477Y-214185770D02*
X71988096Y-214281008D01*
X71988096Y-214281008D02*
X71988096Y-214804818D01*
X72464286Y-214804818D02*
X72464286Y-214138151D01*
X72464286Y-214233389D02*
X72511905Y-214185770D01*
X72511905Y-214185770D02*
X72607143Y-214138151D01*
X72607143Y-214138151D02*
X72750000Y-214138151D01*
X72750000Y-214138151D02*
X72845238Y-214185770D01*
X72845238Y-214185770D02*
X72892857Y-214281008D01*
X72892857Y-214281008D02*
X72892857Y-214804818D01*
X72892857Y-214281008D02*
X72940476Y-214185770D01*
X72940476Y-214185770D02*
X73035714Y-214138151D01*
X73035714Y-214138151D02*
X73178571Y-214138151D01*
X73178571Y-214138151D02*
X73273810Y-214185770D01*
X73273810Y-214185770D02*
X73321429Y-214281008D01*
X73321429Y-214281008D02*
X73321429Y-214804818D01*
X22500000Y-201000000D02*
X22500000Y-216086419D01*
X115000000Y-201000000D02*
X115000000Y-216086419D01*
X22500000Y-215499999D02*
X115000000Y-215499999D01*
X22500000Y-215499999D02*
X115000000Y-215499999D01*
X22500000Y-215499999D02*
X23626504Y-214913578D01*
X22500000Y-215499999D02*
X23626504Y-216086420D01*
X115000000Y-215499999D02*
X113873496Y-216086420D01*
X115000000Y-215499999D02*
X113873496Y-214913578D01*
X136804819Y-136273809D02*
X136804819Y-136845237D01*
X136804819Y-136559523D02*
X135804819Y-136559523D01*
X135804819Y-136559523D02*
X135947676Y-136654761D01*
X135947676Y-136654761D02*
X136042914Y-136749999D01*
X136042914Y-136749999D02*
X136090533Y-136845237D01*
X135900057Y-135892856D02*
X135852438Y-135845237D01*
X135852438Y-135845237D02*
X135804819Y-135749999D01*
X135804819Y-135749999D02*
X135804819Y-135511904D01*
X135804819Y-135511904D02*
X135852438Y-135416666D01*
X135852438Y-135416666D02*
X135900057Y-135369047D01*
X135900057Y-135369047D02*
X135995295Y-135321428D01*
X135995295Y-135321428D02*
X136090533Y-135321428D01*
X136090533Y-135321428D02*
X136233390Y-135369047D01*
X136233390Y-135369047D02*
X136804819Y-135940475D01*
X136804819Y-135940475D02*
X136804819Y-135321428D01*
X135804819Y-134988094D02*
X135804819Y-134321428D01*
X135804819Y-134321428D02*
X136804819Y-134749999D01*
X136709580Y-133940475D02*
X136757200Y-133892856D01*
X136757200Y-133892856D02*
X136804819Y-133940475D01*
X136804819Y-133940475D02*
X136757200Y-133988094D01*
X136757200Y-133988094D02*
X136709580Y-133940475D01*
X136709580Y-133940475D02*
X136804819Y-133940475D01*
X135804819Y-132988095D02*
X135804819Y-133464285D01*
X135804819Y-133464285D02*
X136281009Y-133511904D01*
X136281009Y-133511904D02*
X136233390Y-133464285D01*
X136233390Y-133464285D02*
X136185771Y-133369047D01*
X136185771Y-133369047D02*
X136185771Y-133130952D01*
X136185771Y-133130952D02*
X136233390Y-133035714D01*
X136233390Y-133035714D02*
X136281009Y-132988095D01*
X136281009Y-132988095D02*
X136376247Y-132940476D01*
X136376247Y-132940476D02*
X136614342Y-132940476D01*
X136614342Y-132940476D02*
X136709580Y-132988095D01*
X136709580Y-132988095D02*
X136757200Y-133035714D01*
X136757200Y-133035714D02*
X136804819Y-133130952D01*
X136804819Y-133130952D02*
X136804819Y-133369047D01*
X136804819Y-133369047D02*
X136757200Y-133464285D01*
X136757200Y-133464285D02*
X136709580Y-133511904D01*
X135804819Y-132321428D02*
X135804819Y-132226190D01*
X135804819Y-132226190D02*
X135852438Y-132130952D01*
X135852438Y-132130952D02*
X135900057Y-132083333D01*
X135900057Y-132083333D02*
X135995295Y-132035714D01*
X135995295Y-132035714D02*
X136185771Y-131988095D01*
X136185771Y-131988095D02*
X136423866Y-131988095D01*
X136423866Y-131988095D02*
X136614342Y-132035714D01*
X136614342Y-132035714D02*
X136709580Y-132083333D01*
X136709580Y-132083333D02*
X136757200Y-132130952D01*
X136757200Y-132130952D02*
X136804819Y-132226190D01*
X136804819Y-132226190D02*
X136804819Y-132321428D01*
X136804819Y-132321428D02*
X136757200Y-132416666D01*
X136757200Y-132416666D02*
X136709580Y-132464285D01*
X136709580Y-132464285D02*
X136614342Y-132511904D01*
X136614342Y-132511904D02*
X136423866Y-132559523D01*
X136423866Y-132559523D02*
X136185771Y-132559523D01*
X136185771Y-132559523D02*
X135995295Y-132511904D01*
X135995295Y-132511904D02*
X135900057Y-132464285D01*
X135900057Y-132464285D02*
X135852438Y-132416666D01*
X135852438Y-132416666D02*
X135804819Y-132321428D01*
X135804819Y-131369047D02*
X135804819Y-131273809D01*
X135804819Y-131273809D02*
X135852438Y-131178571D01*
X135852438Y-131178571D02*
X135900057Y-131130952D01*
X135900057Y-131130952D02*
X135995295Y-131083333D01*
X135995295Y-131083333D02*
X136185771Y-131035714D01*
X136185771Y-131035714D02*
X136423866Y-131035714D01*
X136423866Y-131035714D02*
X136614342Y-131083333D01*
X136614342Y-131083333D02*
X136709580Y-131130952D01*
X136709580Y-131130952D02*
X136757200Y-131178571D01*
X136757200Y-131178571D02*
X136804819Y-131273809D01*
X136804819Y-131273809D02*
X136804819Y-131369047D01*
X136804819Y-131369047D02*
X136757200Y-131464285D01*
X136757200Y-131464285D02*
X136709580Y-131511904D01*
X136709580Y-131511904D02*
X136614342Y-131559523D01*
X136614342Y-131559523D02*
X136423866Y-131607142D01*
X136423866Y-131607142D02*
X136185771Y-131607142D01*
X136185771Y-131607142D02*
X135995295Y-131559523D01*
X135995295Y-131559523D02*
X135900057Y-131511904D01*
X135900057Y-131511904D02*
X135852438Y-131464285D01*
X135852438Y-131464285D02*
X135804819Y-131369047D01*
X135804819Y-130416666D02*
X135804819Y-130321428D01*
X135804819Y-130321428D02*
X135852438Y-130226190D01*
X135852438Y-130226190D02*
X135900057Y-130178571D01*
X135900057Y-130178571D02*
X135995295Y-130130952D01*
X135995295Y-130130952D02*
X136185771Y-130083333D01*
X136185771Y-130083333D02*
X136423866Y-130083333D01*
X136423866Y-130083333D02*
X136614342Y-130130952D01*
X136614342Y-130130952D02*
X136709580Y-130178571D01*
X136709580Y-130178571D02*
X136757200Y-130226190D01*
X136757200Y-130226190D02*
X136804819Y-130321428D01*
X136804819Y-130321428D02*
X136804819Y-130416666D01*
X136804819Y-130416666D02*
X136757200Y-130511904D01*
X136757200Y-130511904D02*
X136709580Y-130559523D01*
X136709580Y-130559523D02*
X136614342Y-130607142D01*
X136614342Y-130607142D02*
X136423866Y-130654761D01*
X136423866Y-130654761D02*
X136185771Y-130654761D01*
X136185771Y-130654761D02*
X135995295Y-130607142D01*
X135995295Y-130607142D02*
X135900057Y-130559523D01*
X135900057Y-130559523D02*
X135852438Y-130511904D01*
X135852438Y-130511904D02*
X135804819Y-130416666D01*
X136804819Y-128892856D02*
X136138152Y-128892856D01*
X136233390Y-128892856D02*
X136185771Y-128845237D01*
X136185771Y-128845237D02*
X136138152Y-128749999D01*
X136138152Y-128749999D02*
X136138152Y-128607142D01*
X136138152Y-128607142D02*
X136185771Y-128511904D01*
X136185771Y-128511904D02*
X136281009Y-128464285D01*
X136281009Y-128464285D02*
X136804819Y-128464285D01*
X136281009Y-128464285D02*
X136185771Y-128416666D01*
X136185771Y-128416666D02*
X136138152Y-128321428D01*
X136138152Y-128321428D02*
X136138152Y-128178571D01*
X136138152Y-128178571D02*
X136185771Y-128083332D01*
X136185771Y-128083332D02*
X136281009Y-128035713D01*
X136281009Y-128035713D02*
X136804819Y-128035713D01*
X136804819Y-127559523D02*
X136138152Y-127559523D01*
X136233390Y-127559523D02*
X136185771Y-127511904D01*
X136185771Y-127511904D02*
X136138152Y-127416666D01*
X136138152Y-127416666D02*
X136138152Y-127273809D01*
X136138152Y-127273809D02*
X136185771Y-127178571D01*
X136185771Y-127178571D02*
X136281009Y-127130952D01*
X136281009Y-127130952D02*
X136804819Y-127130952D01*
X136281009Y-127130952D02*
X136185771Y-127083333D01*
X136185771Y-127083333D02*
X136138152Y-126988095D01*
X136138152Y-126988095D02*
X136138152Y-126845238D01*
X136138152Y-126845238D02*
X136185771Y-126749999D01*
X136185771Y-126749999D02*
X136281009Y-126702380D01*
X136281009Y-126702380D02*
X136804819Y-126702380D01*
X110500000Y-68000000D02*
X138086420Y-68000000D01*
X110500000Y-195500000D02*
X138086420Y-195500000D01*
X137500000Y-68000000D02*
X137500000Y-195500000D01*
X137500000Y-68000000D02*
X137500000Y-195500000D01*
X137500000Y-68000000D02*
X138086421Y-69126504D01*
X137500000Y-68000000D02*
X136913579Y-69126504D01*
X137500000Y-195500000D02*
X136913579Y-194373496D01*
X137500000Y-195500000D02*
X138086421Y-194373496D01*
X64321429Y-41233390D02*
X64226191Y-41185771D01*
X64226191Y-41185771D02*
X64178572Y-41138152D01*
X64178572Y-41138152D02*
X64130953Y-41042914D01*
X64130953Y-41042914D02*
X64130953Y-40995295D01*
X64130953Y-40995295D02*
X64178572Y-40900057D01*
X64178572Y-40900057D02*
X64226191Y-40852438D01*
X64226191Y-40852438D02*
X64321429Y-40804819D01*
X64321429Y-40804819D02*
X64511905Y-40804819D01*
X64511905Y-40804819D02*
X64607143Y-40852438D01*
X64607143Y-40852438D02*
X64654762Y-40900057D01*
X64654762Y-40900057D02*
X64702381Y-40995295D01*
X64702381Y-40995295D02*
X64702381Y-41042914D01*
X64702381Y-41042914D02*
X64654762Y-41138152D01*
X64654762Y-41138152D02*
X64607143Y-41185771D01*
X64607143Y-41185771D02*
X64511905Y-41233390D01*
X64511905Y-41233390D02*
X64321429Y-41233390D01*
X64321429Y-41233390D02*
X64226191Y-41281009D01*
X64226191Y-41281009D02*
X64178572Y-41328628D01*
X64178572Y-41328628D02*
X64130953Y-41423866D01*
X64130953Y-41423866D02*
X64130953Y-41614342D01*
X64130953Y-41614342D02*
X64178572Y-41709580D01*
X64178572Y-41709580D02*
X64226191Y-41757200D01*
X64226191Y-41757200D02*
X64321429Y-41804819D01*
X64321429Y-41804819D02*
X64511905Y-41804819D01*
X64511905Y-41804819D02*
X64607143Y-41757200D01*
X64607143Y-41757200D02*
X64654762Y-41709580D01*
X64654762Y-41709580D02*
X64702381Y-41614342D01*
X64702381Y-41614342D02*
X64702381Y-41423866D01*
X64702381Y-41423866D02*
X64654762Y-41328628D01*
X64654762Y-41328628D02*
X64607143Y-41281009D01*
X64607143Y-41281009D02*
X64511905Y-41233390D01*
X65083334Y-40900057D02*
X65130953Y-40852438D01*
X65130953Y-40852438D02*
X65226191Y-40804819D01*
X65226191Y-40804819D02*
X65464286Y-40804819D01*
X65464286Y-40804819D02*
X65559524Y-40852438D01*
X65559524Y-40852438D02*
X65607143Y-40900057D01*
X65607143Y-40900057D02*
X65654762Y-40995295D01*
X65654762Y-40995295D02*
X65654762Y-41090533D01*
X65654762Y-41090533D02*
X65607143Y-41233390D01*
X65607143Y-41233390D02*
X65035715Y-41804819D01*
X65035715Y-41804819D02*
X65654762Y-41804819D01*
X66083334Y-41709580D02*
X66130953Y-41757200D01*
X66130953Y-41757200D02*
X66083334Y-41804819D01*
X66083334Y-41804819D02*
X66035715Y-41757200D01*
X66035715Y-41757200D02*
X66083334Y-41709580D01*
X66083334Y-41709580D02*
X66083334Y-41804819D01*
X67035714Y-40804819D02*
X66559524Y-40804819D01*
X66559524Y-40804819D02*
X66511905Y-41281009D01*
X66511905Y-41281009D02*
X66559524Y-41233390D01*
X66559524Y-41233390D02*
X66654762Y-41185771D01*
X66654762Y-41185771D02*
X66892857Y-41185771D01*
X66892857Y-41185771D02*
X66988095Y-41233390D01*
X66988095Y-41233390D02*
X67035714Y-41281009D01*
X67035714Y-41281009D02*
X67083333Y-41376247D01*
X67083333Y-41376247D02*
X67083333Y-41614342D01*
X67083333Y-41614342D02*
X67035714Y-41709580D01*
X67035714Y-41709580D02*
X66988095Y-41757200D01*
X66988095Y-41757200D02*
X66892857Y-41804819D01*
X66892857Y-41804819D02*
X66654762Y-41804819D01*
X66654762Y-41804819D02*
X66559524Y-41757200D01*
X66559524Y-41757200D02*
X66511905Y-41709580D01*
X67702381Y-40804819D02*
X67797619Y-40804819D01*
X67797619Y-40804819D02*
X67892857Y-40852438D01*
X67892857Y-40852438D02*
X67940476Y-40900057D01*
X67940476Y-40900057D02*
X67988095Y-40995295D01*
X67988095Y-40995295D02*
X68035714Y-41185771D01*
X68035714Y-41185771D02*
X68035714Y-41423866D01*
X68035714Y-41423866D02*
X67988095Y-41614342D01*
X67988095Y-41614342D02*
X67940476Y-41709580D01*
X67940476Y-41709580D02*
X67892857Y-41757200D01*
X67892857Y-41757200D02*
X67797619Y-41804819D01*
X67797619Y-41804819D02*
X67702381Y-41804819D01*
X67702381Y-41804819D02*
X67607143Y-41757200D01*
X67607143Y-41757200D02*
X67559524Y-41709580D01*
X67559524Y-41709580D02*
X67511905Y-41614342D01*
X67511905Y-41614342D02*
X67464286Y-41423866D01*
X67464286Y-41423866D02*
X67464286Y-41185771D01*
X67464286Y-41185771D02*
X67511905Y-40995295D01*
X67511905Y-40995295D02*
X67559524Y-40900057D01*
X67559524Y-40900057D02*
X67607143Y-40852438D01*
X67607143Y-40852438D02*
X67702381Y-40804819D01*
X68654762Y-40804819D02*
X68750000Y-40804819D01*
X68750000Y-40804819D02*
X68845238Y-40852438D01*
X68845238Y-40852438D02*
X68892857Y-40900057D01*
X68892857Y-40900057D02*
X68940476Y-40995295D01*
X68940476Y-40995295D02*
X68988095Y-41185771D01*
X68988095Y-41185771D02*
X68988095Y-41423866D01*
X68988095Y-41423866D02*
X68940476Y-41614342D01*
X68940476Y-41614342D02*
X68892857Y-41709580D01*
X68892857Y-41709580D02*
X68845238Y-41757200D01*
X68845238Y-41757200D02*
X68750000Y-41804819D01*
X68750000Y-41804819D02*
X68654762Y-41804819D01*
X68654762Y-41804819D02*
X68559524Y-41757200D01*
X68559524Y-41757200D02*
X68511905Y-41709580D01*
X68511905Y-41709580D02*
X68464286Y-41614342D01*
X68464286Y-41614342D02*
X68416667Y-41423866D01*
X68416667Y-41423866D02*
X68416667Y-41185771D01*
X68416667Y-41185771D02*
X68464286Y-40995295D01*
X68464286Y-40995295D02*
X68511905Y-40900057D01*
X68511905Y-40900057D02*
X68559524Y-40852438D01*
X68559524Y-40852438D02*
X68654762Y-40804819D01*
X69607143Y-40804819D02*
X69702381Y-40804819D01*
X69702381Y-40804819D02*
X69797619Y-40852438D01*
X69797619Y-40852438D02*
X69845238Y-40900057D01*
X69845238Y-40900057D02*
X69892857Y-40995295D01*
X69892857Y-40995295D02*
X69940476Y-41185771D01*
X69940476Y-41185771D02*
X69940476Y-41423866D01*
X69940476Y-41423866D02*
X69892857Y-41614342D01*
X69892857Y-41614342D02*
X69845238Y-41709580D01*
X69845238Y-41709580D02*
X69797619Y-41757200D01*
X69797619Y-41757200D02*
X69702381Y-41804819D01*
X69702381Y-41804819D02*
X69607143Y-41804819D01*
X69607143Y-41804819D02*
X69511905Y-41757200D01*
X69511905Y-41757200D02*
X69464286Y-41709580D01*
X69464286Y-41709580D02*
X69416667Y-41614342D01*
X69416667Y-41614342D02*
X69369048Y-41423866D01*
X69369048Y-41423866D02*
X69369048Y-41185771D01*
X69369048Y-41185771D02*
X69416667Y-40995295D01*
X69416667Y-40995295D02*
X69464286Y-40900057D01*
X69464286Y-40900057D02*
X69511905Y-40852438D01*
X69511905Y-40852438D02*
X69607143Y-40804819D01*
X71130953Y-41804819D02*
X71130953Y-41138152D01*
X71130953Y-41233390D02*
X71178572Y-41185771D01*
X71178572Y-41185771D02*
X71273810Y-41138152D01*
X71273810Y-41138152D02*
X71416667Y-41138152D01*
X71416667Y-41138152D02*
X71511905Y-41185771D01*
X71511905Y-41185771D02*
X71559524Y-41281009D01*
X71559524Y-41281009D02*
X71559524Y-41804819D01*
X71559524Y-41281009D02*
X71607143Y-41185771D01*
X71607143Y-41185771D02*
X71702381Y-41138152D01*
X71702381Y-41138152D02*
X71845238Y-41138152D01*
X71845238Y-41138152D02*
X71940477Y-41185771D01*
X71940477Y-41185771D02*
X71988096Y-41281009D01*
X71988096Y-41281009D02*
X71988096Y-41804819D01*
X72464286Y-41804819D02*
X72464286Y-41138152D01*
X72464286Y-41233390D02*
X72511905Y-41185771D01*
X72511905Y-41185771D02*
X72607143Y-41138152D01*
X72607143Y-41138152D02*
X72750000Y-41138152D01*
X72750000Y-41138152D02*
X72845238Y-41185771D01*
X72845238Y-41185771D02*
X72892857Y-41281009D01*
X72892857Y-41281009D02*
X72892857Y-41804819D01*
X72892857Y-41281009D02*
X72940476Y-41185771D01*
X72940476Y-41185771D02*
X73035714Y-41138152D01*
X73035714Y-41138152D02*
X73178571Y-41138152D01*
X73178571Y-41138152D02*
X73273810Y-41185771D01*
X73273810Y-41185771D02*
X73321429Y-41281009D01*
X73321429Y-41281009D02*
X73321429Y-41804819D01*
X27500000Y-67500000D02*
X27500000Y-41913580D01*
X110000000Y-67500000D02*
X110000000Y-41913580D01*
X27500000Y-42500000D02*
X110000000Y-42500000D01*
X27500000Y-42500000D02*
X110000000Y-42500000D01*
X27500000Y-42500000D02*
X28626504Y-41913579D01*
X27500000Y-42500000D02*
X28626504Y-43086421D01*
X110000000Y-42500000D02*
X108873496Y-43086421D01*
X110000000Y-42500000D02*
X108873496Y-41913579D01*
%TO.C,H4*%
X30700000Y-195500000D02*
G75*
G03*
X30700000Y-195500000I-3200000J0D01*
G01*
%TO.C,H3*%
X113200000Y-195500000D02*
G75*
G03*
X113200000Y-195500000I-3200000J0D01*
G01*
%TO.C,H2*%
X113200000Y-68000000D02*
G75*
G03*
X113200000Y-68000000I-3200000J0D01*
G01*
%TO.C,H1*%
X30700000Y-68000000D02*
G75*
G03*
X30700000Y-68000000I-3200000J0D01*
G01*
%TD*%
M02*
